<svg t="1696754130745" class="icon" viewBox="0 0 1024 1024" version="1.1" xmlns="http://www.w3.org/2000/svg" p-id="4027" width="22" height="22"><path d="M553.429333 96.426667l298.666667 170.794666A88.32 88.32 0 0 1 896 344.021333v335.957334a88.32 88.32 0 0 1-43.904 76.8l-298.666667 170.837333a83.2 83.2 0 0 1-82.858666 0l-298.666667-170.837333A88.32 88.32 0 0 1 128 679.978667V344.021333a88.32 88.32 0 0 1 43.904-76.8l298.666667-170.837333a83.2 83.2 0 0 1 82.858666 0zM512 170.965333L214.272 341.290667c-0.341333 0.213333-0.938667 1.28-0.938667 2.730666v335.957334c0 1.493333 0.597333 2.56 0.938667 2.730666L512 852.992l297.728-170.282667c0.341333-0.213333 0.938667-1.28 0.938667-2.730666V344.021333c0-1.493333-0.597333-2.56-0.938667-2.730666L512 171.008zM512 597.333333a85.333333 85.333333 0 1 1 0-170.666666 85.333333 85.333333 0 0 1 0 170.666666z" fill="#000000" p-id="4028"></path></svg>